<?xml version="1.0" encoding="utf-8"?>
<!-- Generator: Adobe Illustrator 17.0.2, SVG Export Plug-In . SVG Version: 6.00 Build 0)  -->
<!DOCTYPE svg PUBLIC "-//W3C//DTD SVG 1.1//EN" "http://www.w3.org/Graphics/SVG/1.1/DTD/svg11.dtd">
<svg version="1.1" id="Layer_1" xmlns="http://www.w3.org/2000/svg" xmlns:xlink="http://www.w3.org/1999/xlink" x="0px" y="0px"
	 width="1031px" height="1040px" viewBox="0 0 1031 1040" enable-background="new 0 0 1031 1040" xml:space="preserve">
<g>
	<defs>
		<path id="SVGID_1_" d="M1027.923,509.366c0,70.329,0.161,140.659-0.088,210.988c-0.086,24.314-0.723,48.648-1.957,72.929
			c-1.497,29.478-4.975,58.837-14.4,86.934c-17.367,51.773-50.555,90.849-97.557,118.437c-26.504,15.557-55.571,22.86-85.606,27.126
			c-35.386,5.026-71.024,5.262-106.663,5.322c-130.984,0.219-261.969,0.468-392.953,0.578c-21.157,0.018-42.328-0.234-63.468-1.024
			c-35.632-1.33-71.147-3.996-105.553-14.391c-36.469-11.018-67.13-31.341-92.937-59.085
			c-18.227-19.596-32.401-41.895-42.037-66.897c-8.129-21.092-13.103-43.116-14.827-65.544c-2.346-30.518-4.296-61.15-4.424-91.742
			C4.856,589.181,4.779,445.36,4.904,301.54c0.027-31.632,1.169-63.274,5.576-94.712C22.568,120.592,68.203,60.123,149.034,27.196
			c22.303-9.085,46.196-13.275,70.165-14.703c35.9-2.139,71.883-3.852,107.836-3.954c136.657-0.385,273.317-0.216,409.975,0.13
			c35.14,0.089,70.302,1.255,105.034,7.619c81.05,14.85,136.769,60.943,167.445,137.052c8.936,22.171,12.329,45.935,14.675,69.693
			c4.034,40.855,3.871,81.858,3.938,122.843c0.089,54.497,0.022,108.994,0.022,163.491
			C1028.057,509.366,1027.99,509.366,1027.923,509.366z M487.838,594.664c7.363,8.182,14.154,15.893,21.13,23.433
			c6.899,7.455,13.944,14.776,20.997,22.086c13.784,14.286,27.758,28.392,41.305,42.898c2.459,2.634,4.604,6.814,4.62,10.29
			c0.26,57.492,0.074,114.987,0.227,172.48c0.021,8.007,0.563,16.166,2.183,23.981c2.565,12.379,9.579,23.051,21.713,26.559
			c17.592,5.087,31.75,3.999,44.424-10.36c8.027-9.095,9.907-20.358,9.986-31.252c0.501-68.822,0.223-137.649,0.187-206.475
			c-0.003-6.563-0.152-12.927-2.29-19.458c-2.923-8.932-5.824-17.359-12.776-24.239c-7.837-7.755-14.811-16.375-22.313-24.477
			c-4.012-4.333-8.476-8.248-12.508-12.565c-9.22-9.872-18.302-19.873-27.434-29.827c-5.408-5.895-10.823-11.782-16.178-17.725
			c-0.616-0.683-1.378-1.822-1.202-2.535c1.168-4.742,2.52-9.442,3.913-14.126c1.845-6.202,3.937-12.334,5.645-18.573
			c2.502-9.141,4.581-18.399,7.162-27.517c3.094-10.929,6.604-21.739,9.777-32.646c1.567-5.384,2.705-10.891,4.176-16.304
			c1.923-7.076,3.942-14.127,5.999-21.165c1.892-6.473,3.89-12.916,6.061-20.1c7.816,10.646,15.225,20.719,22.612,30.807
			c4.38,5.981,8.714,11.997,13.094,17.978c2.235,3.052,4.833,4.652,9.069,4.624c34.161-0.22,68.325-0.123,102.488-0.122
			c1.909,0,3.817,0,5.94,0c-0.704,2.68-1.407,4.477-1.626,6.331c-1.46,12.394-2.805,24.8-4.212,37.2
			c-0.428,3.773-0.88,7.545-1.411,11.305c-1.116,7.908-2.395,15.795-3.418,23.715c-1.598,12.374-2.99,24.774-4.565,37.151
			c-1.075,8.444-2.421,16.855-3.455,25.303c-1.477,12.056-2.76,24.136-4.168,36.2c-0.419,3.592-0.981,7.167-1.474,10.749
			c-1.137,8.252-2.3,16.5-3.402,24.756c-1.323,9.916-2.617,19.835-3.879,29.758c-1.409,11.08-2.802,22.162-4.142,33.251
			c-1.46,12.079-2.765,24.176-4.296,36.246c-1.466,11.551-3.263,23.06-4.683,34.616c-1.545,12.573-2.745,25.188-4.24,37.768
			c-1.534,12.905-3.267,25.785-4.865,38.683c-0.509,4.108-0.176,8.461-1.437,12.305c-2.676,8.156-2.102,14.582,4.054,21.626
			c8.285,9.48,25.216,3.621,27.657-5.386c1.492-5.505,2.591-11.161,3.314-16.82c1.585-12.403,2.803-24.853,4.203-37.281
			c0.444-3.942,0.976-7.874,1.487-11.808c1.118-8.604,2.309-17.199,3.36-25.811c1.534-12.568,2.903-25.156,4.472-37.72
			c1.056-8.457,2.372-16.882,3.508-25.329c1.333-9.918,2.636-19.841,3.879-29.771c1.408-11.245,2.736-22.5,4.101-33.75
			c1.64-13.521,3.264-27.044,4.926-40.562c1.322-10.75,2.791-21.483,4.015-32.244c1.486-13.064,2.762-26.152,4.175-39.225
			c0.426-3.939,0.993-7.863,1.517-11.791c1.1-8.246,2.305-16.48,3.304-24.739c1.558-12.879,2.9-25.784,4.49-38.658
			c1.022-8.276,2.447-16.503,3.454-24.781c0.599-4.926,0.77-9.907,1.076-14.867c0.269-4.358,1.712-6.648,6.896-6.631
			c4.969,0.016,10.593-0.524,14.794-2.86c13.469-7.49,18.293-22.033,13.402-37.799c-0.856-2.759-1.998-5.663-3.796-7.852
			c-5.682-6.918-12.922-11.45-22.771-12.175c1.063-8.997,2.064-17.46,3.121-26.405c-10.453,0-20.261-0.105-30.06,0.157
			c-1.01,0.027-2.596,2.128-2.836,3.461c-1.384,7.667-2.442,15.392-3.644,23.311c-22.258,0-44.414,0.083-66.567-0.149
			c-1.882-0.02-4.249-1.746-5.525-3.363c-5.479-6.941-10.446-14.289-15.956-21.205c-7.306-9.171-15.127-17.932-22.392-27.134
			c-9.235-11.697-17.968-23.791-27.229-35.466c-8.841-11.145-18.314-21.79-27.078-32.992c-7.724-9.872-18.093-15.877-29.714-18.283
			c-15.964-3.305-32.204-2.931-46.943,5.782c-13.01,7.691-23.284,17.719-27.272,33.032c-1.434,5.505-3.763,10.772-5.593,16.179
			c-3.435,10.151-6.915,20.289-10.166,30.5c-2.723,8.554-4.971,17.26-7.743,25.797c-4.258,13.115-8.864,26.116-13.165,39.217
			c-2.585,7.874-4.723,15.895-7.325,23.764c-4.471,13.522-9.218,26.953-13.712,40.467c-2.686,8.076-5.011,16.272-7.683,24.354
			c-2.302,6.964-5.011,13.795-7.27,20.771c-2.005,6.191-3.463,12.559-5.479,18.746c-3.071,9.43-6.647,18.699-9.571,28.171
			c-2.395,7.759-3.739,15.853-6.29,23.553c-3.899,11.769-8.257,23.396-12.76,34.951c-3.478,8.925-7.413,17.674-11.263,26.45
			c-2.81,6.404-5.837,12.713-8.721,19.085c-4.869,10.757-9.699,21.532-14.557,32.293c-0.132,0.293-0.411,0.517-0.608,0.784
			c-5.94,8.026-12.067,15.922-17.77,24.113c-7.128,10.237-13.745,20.83-20.876,31.064c-9,12.916-18.358,25.581-27.442,38.438
			c-6.508,9.211-12.79,18.581-19.226,27.844c-7.612,10.954-15.216,21.914-22.947,32.783c-5.099,7.168-7.613,14.962-6.835,23.8
			c0.233,2.646,0.195,5.341,0.008,7.994c-0.885,12.512,10.28,24.393,20.209,29.163c7.626,3.664,15.535,3.53,23.346,2.798
			c5.211-0.489,10.617-2.418,15.233-4.972c9.079-5.024,14.765-13.584,20.421-22.013c6.069-9.045,12.09-18.126,18.352-27.037
			c7.925-11.277,16.127-22.358,24.103-33.599c5.614-7.912,11.036-15.96,16.571-23.929c4.5-6.479,9.034-12.935,13.565-19.392
			c5.419-7.721,10.927-15.382,16.257-23.164c4.913-7.173,10.114-14.209,14.34-21.779c6.212-11.128,11.564-22.732,17.477-34.031
			c7.471-14.275,15.296-28.367,22.679-42.686C468.925,632.483,478.013,614.15,487.838,594.664z M254.742,406.175
			c-0.131,11.518,0.52,22.954,5.546,33.432c4.071,8.486,8.226,17.299,14.187,24.424c8.441,10.09,18.397,18.537,30.886,24.366
			c12.823,5.985,26.208,7.834,39.721,9.771c3.818,0.547,7.937-1.543,11.945-1.692c14.038-0.521,26.248-5.887,38.042-13.036
			c12.065-7.313,21.635-17.202,28.115-29.333c6.149-11.511,10.783-23.941,15.039-36.325c4.683-13.625,8.202-27.652,12.174-41.519
			c1.264-4.413,2.242-8.91,3.556-13.307c1.758-5.883,3.804-11.681,5.568-17.562c2.265-7.555,4.207-15.21,6.597-22.724
			c2.201-6.919,5.883-13.544,6.966-20.597c1.318-8.582,2.472-17.276,1.668-26.228c-0.842-9.372-1.565-18.459-4.863-27.484
			c-3.365-9.21-7.6-18.029-14.077-24.932c-8.391-8.942-16.81-18.022-28.645-23.388c-13.748-6.234-27.679-11.034-42.759-10.818
			c-8.081,0.115-16.207,1.812-24.174,3.465c-5.845,1.213-11.612,3.159-17.136,5.449c-3.996,1.656-7.892,3.986-11.205,6.765
			c-6.951,5.831-13.994,11.698-20.053,18.405c-6.207,6.871-11.333,14.709-13.811,23.943c-1.436,5.352-3.138,10.637-4.862,15.906
			c-3.227,9.86-6.715,19.637-9.801,29.54c-3.184,10.218-6.086,20.526-8.987,30.829c-2.773,9.851-5.369,19.751-8.076,29.621
			c-1.255,4.574-2.53,9.143-3.901,13.683c-2.019,6.689-4.688,13.239-6.042,20.054C255.11,393.173,255.227,399.734,254.742,406.175z
			 M599.873,237.355c11.003-0.612,22.146-0.694,31.974-6.802c5.605-3.483,11.645-6.553,16.466-10.934
			c5.566-5.058,10.746-10.893,14.72-17.249c3.719-5.949,6.286-12.839,8.2-19.642c2.836-10.079,3.231-20.548,1.132-30.868
			c-1.229-6.039-2.649-12.209-5.179-17.776c-4.164-9.162-10.968-16.412-18.163-23.54c-7.113-7.047-15.518-11.12-24.441-14.507
			c-12.473-4.734-25.61-2.908-38.498-2.768c-4.353,0.047-8.953,1.176-12.981,2.889c-11.832,5.033-22.347,11.677-30.787,22.021
			c-9.725,11.919-14.573,25.457-16.926,40.106c-1.447,9.011,0.511,18,2.963,26.719c2.577,9.161,6.866,17.471,12.797,25.012
			c6.887,8.757,15.423,15.599,25.17,20.508C576.704,235.754,588.149,237.618,599.873,237.355z"/>
	</defs>
	<clipPath id="SVGID_2_">
		<use xlink:href="#SVGID_1_"  overflow="visible"/>
	</clipPath>
	<g clip-path="url(#SVGID_2_)" enable-background="new    ">
		
			<image overflow="visible" width="1079" height="1064" xlink:href="1997CC38EA122AFA.jpg"  transform="matrix(1 0 0 1 -17.6464 -16.8479)">
		</image>
	</g>
</g>
</svg>
