<?xml version="1.0" encoding="utf-8"?>
<!-- Generator: Adobe Illustrator 17.0.2, SVG Export Plug-In . SVG Version: 6.00 Build 0)  -->
<!DOCTYPE svg PUBLIC "-//W3C//DTD SVG 1.1//EN" "http://www.w3.org/Graphics/SVG/1.1/DTD/svg11.dtd">
<svg version="1.1" id="Layer_1" xmlns="http://www.w3.org/2000/svg" xmlns:xlink="http://www.w3.org/1999/xlink" x="0px" y="0px"
	 width="355px" height="311px" viewBox="0 0 355 311" enable-background="new 0 0 355 311" xml:space="preserve">
<path fill="#F8FDFF" d="M274.376,113.089c-2.083,0-4.158,0.084-6.227,0.253c-9.228-27.775-35.414-47.359-65.698-47.359
	c-2.759,0-7.468,0.22-12.043,0.743c-17.105-14.2-35.722-21.12-56.716-21.12c-45.63,0-82.776,32.553-90.696,78.361
	c-19.735,12.58-32.587,33.517-32.587,53.971c0,35.768,29.692,64.854,66.185,64.854h197.783c37.608,0,69.386-29.696,69.386-64.854
	C343.762,142.788,311.984,113.089,274.376,113.089z M274.376,216.049H76.594c-24.362,0-39.442-19.774-39.442-38.11
	c0-12.558,9.978-26.428,24.268-33.734l6.451-3.296l0.758-7.208c3.751-35.551,31.112-61.354,65.064-61.354
	c16.429,0,29.85,5.669,43.509,18.368l5.238,4.856l6.952-1.644c2.601-0.614,8.947-1.203,13.06-1.203
	c21.516,0,39.652,16.102,42.19,37.443l1.817,15.293l14.882-3.941c4.221-1.122,8.608-1.69,13.036-1.69
	c22.715,0,42.643,17.811,42.643,38.11C317.019,198.246,297.091,216.049,274.376,216.049z"/>
</svg>
