<?xml version="1.0" encoding="utf-8"?>
<!-- Generator: Adobe Illustrator 17.0.2, SVG Export Plug-In . SVG Version: 6.00 Build 0)  -->
<!DOCTYPE svg PUBLIC "-//W3C//DTD SVG 1.1//EN" "http://www.w3.org/Graphics/SVG/1.1/DTD/svg11.dtd">
<svg version="1.1" id="Layer_1" xmlns="http://www.w3.org/2000/svg" xmlns:xlink="http://www.w3.org/1999/xlink" x="0px" y="0px"
	 width="355px" height="311px" viewBox="0 0 355 311" enable-background="new 0 0 355 311" xml:space="preserve">
<path fill="#F8FDFF" d="M349.27,116.184c0-27.936-25.91-51.331-55.593-50.42c-7.903-20.033-27.433-33.918-49.876-33.918
	c-1.822,0-4.6,0.112-7.491,0.387c-12.665-10.119-26.455-15.057-41.979-15.057c-34.182,0-62.1,23.962-68.695,57.901
	c-6.869,4.67-12.51,10.702-16.587,17.392c-37.537,3.527-67.344,31.586-74.273,70.15C17.055,174.156,5.55,193.127,5.55,211.69
	c0,32.736,27.169,59.36,60.56,59.36h176.551c34.376,0,63.419-27.187,63.419-59.36c0-17.81-8.916-34.059-22.685-45.046h12.158
	C324.668,166.644,349.27,143.533,349.27,116.184z M150.533,91.984l0.76-7.231c2.525-23.99,20.226-40.752,43.038-40.752
	c10.79,0,19.649,3.766,28.724,12.204l5.255,4.885l6.977-1.663c1.442-0.334,5.652-0.753,8.515-0.753
	c13.562,0,24.996,10.136,26.592,23.582l1.822,15.341l14.933-3.957c2.712-0.715,5.536-1.073,8.406-1.073
	c15.39,0,26.888,12.468,26.888,23.617c0,11.153-11.497,23.631-26.888,23.631H231.98c-11.279-17.863-31.171-29.546-53.522-29.546
	c-2.458,0-6.377,0.176-10.294,0.598c-8.149-6.676-16.688-11.497-25.714-14.6c0.538-0.323,1.045-0.689,1.608-0.977L150.533,91.984z
	 M242.661,244.229H66.11c-20.835,0-33.732-16.896-33.732-32.54c0-10.678,8.578-22.523,20.86-28.804l6.471-3.313l0.76-7.224
	c3.26-30.967,27.071-53.441,56.607-53.441c14.268,0,25.942,4.934,37.836,15.995l5.244,4.868l6.964-1.639
	c2.262-0.531,7.77-1.034,11.34-1.034c18.454,0,34.013,13.811,36.197,32.128l1.822,15.313l14.923-3.939
	c3.65-0.964,7.442-1.456,11.261-1.456c20.945,0,36.595,17.177,36.595,32.546C279.256,227.046,263.606,244.229,242.661,244.229z"/>
</svg>
