<?xml version="1.0" encoding="utf-8"?>
<!-- Generator: Adobe Illustrator 17.0.2, SVG Export Plug-In . SVG Version: 6.00 Build 0)  -->
<!DOCTYPE svg PUBLIC "-//W3C//DTD SVG 1.1//EN" "http://www.w3.org/Graphics/SVG/1.1/DTD/svg11.dtd">
<svg version="1.1" id="Layer_1" xmlns="http://www.w3.org/2000/svg" xmlns:xlink="http://www.w3.org/1999/xlink" x="0px" y="0px"
	 width="619px" height="612px" viewBox="87.5 0 619 612" enable-background="new 87.5 0 619 612" xml:space="preserve">
<g>
	<path fill="#EDD34B" d="M394.949,199.479c-58.473,0-106.033,47.566-106.033,106.033c0,58.463,47.56,106.022,106.033,106.022
		c58.463,0,106.022-47.56,106.022-106.022C500.972,247.045,453.412,199.479,394.949,199.479z M394.949,366.243
		c-33.488,0-60.741-27.236-60.741-60.73c0-33.488,27.253-60.747,60.741-60.747s60.73,27.259,60.73,60.747
		C455.68,339.006,428.438,366.243,394.949,366.243z"/>
	<path fill="#EDD34B" d="M656.869,283.36H553.946c-12.504,0-22.646,10.136-22.646,22.64c0,12.51,10.142,22.646,22.646,22.646
		h102.923c12.504,0,22.646-10.135,22.646-22.646C679.515,293.496,669.373,283.36,656.869,283.36z"/>
	<path fill="#EDD34B" d="M258.932,306c0-12.504-10.129-22.64-22.634-22.64H133.375c-12.504,0-22.646,10.136-22.646,22.64
		c0,12.51,10.142,22.646,22.646,22.646h102.923C248.802,328.646,258.932,318.51,258.932,306z"/>
	<path fill="#EDD34B" d="M395.104,169.833c12.504,0,22.646-10.142,22.646-22.646V44.259c0-12.504-10.142-22.646-22.646-22.646
		s-22.646,10.142-22.646,22.646v102.927C372.458,159.691,382.6,169.833,395.104,169.833z"/>
	<path fill="#EDD34B" d="M395.104,442.172c-12.504,0-22.646,10.142-22.646,22.646v102.923c0,12.516,10.142,22.646,22.646,22.646
		s22.646-10.129,22.646-22.646V464.818C417.75,452.314,407.608,442.172,395.104,442.172z"/>
	<path fill="#EDD34B" d="M510.78,212.988c5.783,0,11.579-2.21,16.008-6.632l72.771-72.765c8.846-8.848,8.846-23.187,0-32.021
		c-8.847-8.86-23.169-8.86-32.015,0l-72.784,72.764c-8.847,8.848-8.847,23.187,0,32.023
		C499.19,210.778,504.986,212.988,510.78,212.988z"/>
	<path fill="#EDD34B" d="M263.456,405.632l-72.771,72.784c-8.848,8.836-8.848,23.18,0,32.027c4.418,4.418,10.212,6.626,16.008,6.626
		s11.59-2.208,16.008-6.626l72.782-72.784c8.848-8.834,8.848-23.18,0-32.027C286.636,396.798,272.303,396.798,263.456,405.632z"/>
	<path fill="#EDD34B" d="M526.788,405.632c-8.846-8.834-23.18-8.834-32.027,0c-8.847,8.848-8.847,23.193,0,32.027l72.784,72.784
		c4.418,4.418,10.212,6.626,16.008,6.626s11.59-2.208,16.008-6.626c8.846-8.848,8.846-23.192,0-32.027L526.788,405.632z"/>
	<path fill="#EDD34B" d="M263.456,206.356c4.429,4.423,10.224,6.632,16.019,6.632c5.783,0,11.579-2.21,16.008-6.632
		c8.848-8.836,8.848-23.175,0-32.023L222.7,101.569c-8.847-8.86-23.169-8.86-32.015,0c-8.848,8.834-8.848,23.174,0,32.021
		L263.456,206.356z"/>
</g>
</svg>
