<?xml version="1.0" encoding="utf-8"?>
<!-- Generator: Adobe Illustrator 17.0.2, SVG Export Plug-In . SVG Version: 6.00 Build 0)  -->
<!DOCTYPE svg PUBLIC "-//W3C//DTD SVG 1.1//EN" "http://www.w3.org/Graphics/SVG/1.1/DTD/svg11.dtd">
<svg version="1.1" id="Layer_1" xmlns="http://www.w3.org/2000/svg" xmlns:xlink="http://www.w3.org/1999/xlink" x="0px" y="0px"
	 width="1066px" height="311px" viewBox="-424 0 1066 311" enable-background="new -424 0 1066 311" xml:space="preserve">
<g>
	<path fill="#64A526" d="M50.764,260.334c-8.663,0-17.326,0.061-25.988-0.022c-5.435-0.052-6.062-1.128-3.375-5.826
		c7.85-13.725,15.789-27.399,23.674-41.103c3.496-6.076,3.078-6.756-4.151-6.895c-2.165-0.042-4.332-0.01-6.497-0.059
		c-5.414-0.122-6.092-1.165-3.428-5.815c7.61-13.287,15.315-26.518,22.974-39.777c1.831-3.17,3.617-6.367,5.445-9.539
		c1.65-2.864,0.857-4.392-2.452-4.59c-0.166-0.01-0.333-0.012-0.499-0.025c-10.012-0.817-10.011-0.817-5.028-9.44
		c7.078-12.248,14.177-24.484,21.22-36.752c2.803-4.883,2.107-6.073-3.437-6.238c-0.166-0.005-0.335,0.015-0.499-0.004
		c-2.732-0.322-5.463-0.649-8.195-0.975c1.023-2.685,1.676-5.59,3.126-8.019C77.217,62.529,90.909,39.88,104.582,17.22
		c3.446-5.71,4.613-5.711,7.994-0.095c14.164,23.529,28.342,47.049,42.434,70.621c0.946,1.583,1.221,3.568,1.808,5.365
		c-1.871,0.381-3.739,0.786-5.616,1.139c-2.676,0.502-5.358,0.966-8.038,1.446c0.997,2.525,1.714,5.208,3.038,7.547
		c7.049,12.455,14.264,24.818,21.393,37.228c2.825,4.918,2.191,6.023-3.45,6.23c-0.333,0.012-0.666,0.009-0.999,0.015
		c-7.366,0.137-7.661,0.647-3.854,7.265c8.631,15.003,17.343,29.96,25.898,45.006c1.076,1.893,1.404,4.21,2.079,6.331
		c-2.049,0.391-4.098,1.117-6.147,1.117c-12.921-0.003-12.963-0.032-6.641,11.017c7.025,12.279,14.169,24.49,21.196,36.768
		c2.887,5.044,2.331,6.07-3.431,6.093c-16.826,0.068-33.652,0.008-50.477,0.028c-6.988,0.008-8.105,1.138-8.113,8.123
		c-0.01,8.663,0.043,17.326,0.032,25.989c-0.008,6.194-1.204,7.446-7.189,7.454c-12.162,0.016-24.324-0.104-36.485,0.019
		c-4.72,0.048-6.635-2.058-6.596-6.632c0.079-9.162,0.029-18.326-0.02-27.488c-0.034-6.374-1.118-7.431-7.644-7.462
		C67.424,260.304,59.094,260.334,50.764,260.334z"/>
	<path fill="#8DCE4F" d="M26.724,144.601c4.202,7.307,7.584,13.783,11.56,19.871c2.281,3.492,1.896,6.07-0.176,9.405
		c-4.652,7.488-8.934,15.208-13.3,22.873c-5.58,9.797-1.956,16.363,9.382,17.129c0.463,0.031,0.913,0.254,1.81,0.517
		c-2.283,4.033-4.457,7.921-6.676,11.783c-4.974,8.659-10.089,17.239-14.918,25.977c-3.739,6.767-2.223,11.167,4.397,14.844
		c1.041,0.578,2.194,2.057,2.232,3.156c0.218,6.324,0.106,12.658,0.125,18.989c0.011,3.469-1.507,5.157-5.158,5.106
		c-8.828-0.125-17.66-0.15-26.488-0.031c-3.797,0.051-4.973-1.87-4.95-5.251c0.041-6.164-0.193-12.337,0.076-18.49
		c0.214-4.883-1.907-6.438-6.539-6.355c-10.992,0.198-21.99,0.102-32.985,0.082c-2.084-0.004-4.168-0.208-7.589-0.392
		c7.408-12.975,14.265-24.985,21.764-38.119c-5.161-0.361-9.289-0.65-14.637-1.024c8.119-14.273,15.831-27.828,23.955-42.11
		c-3.892-0.498-6.558-0.838-10.53-1.346c7.026-12.37,13.607-23.958,20.756-36.543c-4.12-0.439-7.384-0.787-12.144-1.295
		c12.064-20.079,23.672-39.398,36.116-60.108c12.406,20.564,24.011,39.801,36.205,60.013
		C34.585,143.756,31.306,144.108,26.724,144.601z"/>
	<path fill="#8DCE4F" d="M212.986,84.787c11.544,19.138,23.088,38.275,35.265,58.463c-4.258,0.474-7.512,0.837-12.112,1.349
		c6.984,12.346,13.602,24.045,20.681,36.558c-3.619,0.464-6.299,0.807-10.587,1.356c8.114,14.172,15.895,27.762,24.173,42.22
		c-5.483,0.337-9.617,0.592-14.849,0.914c7.542,13.148,14.428,25.153,21.845,38.083c-3.016,0.21-4.751,0.431-6.487,0.435
		c-11.49,0.032-22.981,0.114-34.469-0.03c-4.419-0.055-6.394,1.503-6.188,6.146c0.273,6.149-0.028,12.322,0.1,18.48
		c0.077,3.717-1.242,5.53-5.216,5.463c-8.823-0.15-17.651-0.118-26.476-0.014c-3.14,0.037-4.686-1.232-4.687-4.359
		c-0.003-7.139-0.001-14.277-0.001-21.525c1.887-0.572,3.506-0.916,5.007-1.544c5.66-2.366,7.35-8.554,3.833-14.758
		c-6.317-11.142-12.802-22.189-19.2-33.286c-0.807-1.399-1.509-2.858-2.422-4.6c1.469-0.116,2.445-0.19,3.421-0.269
		c9.282-0.751,13.043-7.648,8.447-15.847c-5.042-8.996-10.232-17.912-15.525-26.763c-1.687-2.82-2.032-5.082-0.108-8.072
		c3.664-5.692,6.835-11.701,10.767-18.548c-4.151-0.404-7.325-0.712-12.121-1.179c11.593-20.264,23.609-39.311,35.078-58.678
		C211.765,84.784,212.375,84.785,212.986,84.787z"/>
</g>
<g>
	<path fill="#8DCE4F" d="M-299.145,260.334c-8.663,0-17.326,0.061-25.988-0.022c-5.435-0.052-6.062-1.128-3.375-5.826
		c7.85-13.725,15.789-27.399,23.674-41.103c3.496-6.076,3.078-6.756-4.151-6.895c-2.165-0.042-4.332-0.01-6.497-0.059
		c-5.414-0.122-6.092-1.165-3.428-5.815c7.61-13.287,15.315-26.518,22.974-39.777c1.831-3.17,3.617-6.367,5.445-9.539
		c1.65-2.864,0.857-4.392-2.452-4.59c-0.166-0.01-0.333-0.012-0.499-0.025c-10.012-0.817-10.011-0.817-5.028-9.44
		c7.078-12.248,14.177-24.484,21.22-36.752c2.803-4.883,2.107-6.073-3.437-6.238c-0.166-0.005-0.335,0.015-0.499-0.004
		c-2.732-0.322-5.463-0.649-8.195-0.975c1.023-2.685,1.676-5.59,3.126-8.019C-272.692,62.529-259,39.88-245.327,17.22
		c3.446-5.71,4.613-5.711,7.994-0.095c14.164,23.529,28.342,47.049,42.434,70.621c0.946,1.583,1.221,3.568,1.808,5.365
		c-1.871,0.381-3.739,0.786-5.616,1.139c-2.676,0.502-5.358,0.966-8.038,1.446c0.997,2.525,1.714,5.208,3.038,7.547
		c7.049,12.455,14.264,24.818,21.393,37.228c2.825,4.918,2.191,6.023-3.45,6.23c-0.333,0.012-0.666,0.009-0.999,0.015
		c-7.366,0.137-7.661,0.647-3.854,7.265c8.631,15.003,17.343,29.96,25.898,45.006c1.076,1.893,1.404,4.21,2.079,6.331
		c-2.049,0.391-4.098,1.117-6.147,1.117c-12.921-0.003-12.963-0.032-6.641,11.017c7.025,12.279,14.169,24.49,21.196,36.768
		c2.887,5.044,2.331,6.07-3.431,6.093c-16.826,0.068-33.652,0.008-50.477,0.028c-6.988,0.008-8.105,1.138-8.113,8.123
		c-0.01,8.663,0.043,17.326,0.032,25.989c-0.008,6.194-1.204,7.446-7.189,7.454c-12.162,0.016-24.324-0.104-36.485,0.019
		c-4.72,0.048-6.635-2.058-6.596-6.632c0.079-9.162,0.029-18.326-0.02-27.488c-0.034-6.374-1.118-7.431-7.644-7.462
		C-282.485,260.304-290.815,260.334-299.145,260.334z"/>
	<path fill="#64A526" d="M-323.185,144.601c4.202,7.307,7.584,13.783,11.56,19.871c2.281,3.492,1.896,6.07-0.176,9.405
		c-4.652,7.488-8.934,15.208-13.3,22.873c-5.58,9.797-1.956,16.363,9.382,17.129c0.463,0.031,0.913,0.254,1.81,0.517
		c-2.283,4.033-4.457,7.921-6.676,11.783c-4.974,8.659-10.089,17.239-14.918,25.977c-3.739,6.767-2.223,11.167,4.397,14.844
		c1.041,0.578,2.194,2.057,2.232,3.156c0.218,6.324,0.106,12.658,0.125,18.989c0.011,3.469-1.507,5.157-5.158,5.106
		c-8.828-0.125-17.66-0.15-26.488-0.031c-3.797,0.051-4.973-1.87-4.95-5.251c0.041-6.164-0.193-12.337,0.076-18.49
		c0.214-4.883-1.907-6.438-6.539-6.355c-10.992,0.198-21.99,0.102-32.985,0.082c-2.084-0.004-4.168-0.208-7.589-0.392
		c7.408-12.975,14.265-24.985,21.764-38.119c-5.161-0.361-9.289-0.65-14.637-1.024c8.119-14.273,15.831-27.828,23.955-42.11
		c-3.892-0.498-6.558-0.838-10.53-1.346c7.026-12.37,13.607-23.958,20.756-36.543c-4.12-0.439-7.384-0.787-12.144-1.295
		c12.064-20.079,23.672-39.398,36.116-60.108c12.406,20.564,24.011,39.801,36.205,60.013
		C-315.324,143.756-318.603,144.108-323.185,144.601z"/>
	<path fill="#64A526" d="M-136.923,84.787c11.544,19.138,23.088,38.275,35.265,58.463c-4.258,0.474-7.512,0.837-12.112,1.349
		c6.984,12.346,13.602,24.045,20.681,36.558c-3.619,0.464-6.299,0.807-10.587,1.356c8.114,14.172,15.895,27.762,24.173,42.22
		c-5.483,0.337-9.617,0.592-14.849,0.914c7.542,13.148,14.428,25.153,21.845,38.083c-3.016,0.21-4.751,0.431-6.487,0.435
		c-11.49,0.032-22.981,0.114-34.469-0.03c-4.419-0.055-6.394,1.503-6.188,6.146c0.273,6.149-0.028,12.322,0.1,18.48
		c0.077,3.717-1.242,5.53-5.216,5.463c-8.823-0.15-17.651-0.118-26.476-0.014c-3.14,0.037-4.686-1.232-4.687-4.359
		c-0.003-7.139-0.001-14.277-0.001-21.525c1.887-0.572,3.506-0.916,5.007-1.544c5.66-2.366,7.35-8.554,3.833-14.758
		c-6.317-11.142-12.802-22.189-19.2-33.286c-0.807-1.399-1.509-2.858-2.422-4.6c1.469-0.116,2.445-0.19,3.421-0.269
		c9.282-0.751,13.043-7.648,8.447-15.847c-5.042-8.996-10.232-17.912-15.525-26.763c-1.687-2.82-2.032-5.082-0.108-8.072
		c3.664-5.692,6.835-11.701,10.767-18.548c-4.151-0.404-7.325-0.712-12.121-1.179c11.593-20.264,23.609-39.311,35.078-58.678
		C-138.144,84.784-137.534,84.785-136.923,84.787z"/>
</g>
<g>
	<path fill="#8DCE4F" d="M401.733,260.334c-8.663,0-17.326,0.061-25.988-0.022c-5.435-0.052-6.062-1.128-3.375-5.826
		c7.85-13.725,15.789-27.399,23.674-41.103c3.496-6.076,3.078-6.756-4.151-6.895c-2.165-0.042-4.332-0.01-6.497-0.059
		c-5.414-0.122-6.092-1.165-3.428-5.815c7.61-13.287,15.315-26.518,22.974-39.777c1.831-3.17,3.617-6.367,5.445-9.539
		c1.65-2.864,0.857-4.392-2.452-4.59c-0.166-0.01-0.333-0.012-0.499-0.025c-10.012-0.817-10.011-0.817-5.028-9.44
		c7.078-12.248,14.177-24.484,21.22-36.752c2.803-4.883,2.107-6.073-3.437-6.238c-0.166-0.005-0.335,0.015-0.499-0.004
		c-2.732-0.322-5.463-0.649-8.195-0.975c1.023-2.685,1.676-5.59,3.126-8.019c13.563-22.726,27.255-45.375,40.928-68.035
		c3.446-5.71,4.613-5.711,7.994-0.095c14.164,23.529,28.342,47.049,42.434,70.621c0.946,1.583,1.221,3.568,1.808,5.365
		c-1.871,0.381-3.739,0.786-5.616,1.139c-2.676,0.502-5.358,0.966-8.038,1.446c0.997,2.525,1.714,5.208,3.038,7.547
		c7.049,12.455,14.264,24.818,21.393,37.228c2.825,4.918,2.191,6.023-3.45,6.23c-0.333,0.012-0.666,0.009-0.999,0.015
		c-7.366,0.137-7.661,0.647-3.854,7.265c8.631,15.003,17.343,29.96,25.898,45.006c1.076,1.893,1.404,4.21,2.079,6.331
		c-2.049,0.391-4.098,1.117-6.147,1.117c-12.921-0.003-12.963-0.032-6.641,11.017c7.025,12.279,14.169,24.49,21.196,36.768
		c2.887,5.044,2.331,6.07-3.431,6.093c-16.826,0.068-33.652,0.008-50.477,0.028c-6.988,0.008-8.105,1.138-8.113,8.123
		c-0.01,8.663,0.043,17.326,0.032,25.989c-0.008,6.194-1.204,7.446-7.189,7.454c-12.162,0.016-24.324-0.104-36.485,0.019
		c-4.72,0.048-6.635-2.058-6.596-6.632c0.079-9.162,0.029-18.326-0.02-27.488c-0.034-6.374-1.118-7.431-7.644-7.462
		C418.393,260.304,410.063,260.334,401.733,260.334z"/>
	<path fill="#64A526" d="M377.693,144.601c4.202,7.307,7.584,13.783,11.56,19.871c2.281,3.492,1.896,6.07-0.176,9.405
		c-4.652,7.488-8.934,15.208-13.3,22.873c-5.58,9.797-1.956,16.363,9.382,17.129c0.463,0.031,0.913,0.254,1.81,0.517
		c-2.283,4.033-4.457,7.921-6.676,11.783c-4.974,8.659-10.089,17.239-14.918,25.977c-3.739,6.767-2.223,11.167,4.397,14.844
		c1.041,0.578,2.194,2.057,2.232,3.156c0.218,6.324,0.106,12.658,0.125,18.989c0.011,3.469-1.507,5.157-5.158,5.106
		c-8.828-0.125-17.66-0.15-26.488-0.031c-3.797,0.051-4.973-1.87-4.95-5.251c0.041-6.164-0.193-12.337,0.076-18.49
		c0.214-4.883-1.907-6.438-6.539-6.355c-10.992,0.198-21.99,0.102-32.985,0.082c-2.084-0.004-4.168-0.208-7.589-0.392
		c7.408-12.975,14.265-24.985,21.764-38.119c-5.161-0.361-9.289-0.65-14.637-1.024c8.119-14.273,15.831-27.828,23.955-42.11
		c-3.892-0.498-6.558-0.838-10.53-1.346c7.026-12.37,13.607-23.958,20.756-36.543c-4.12-0.439-7.384-0.787-12.144-1.295
		c12.064-20.079,23.672-39.398,36.116-60.108c12.406,20.564,24.011,39.801,36.205,60.013
		C385.554,143.756,382.275,144.108,377.693,144.601z"/>
	<path fill="#64A526" d="M563.955,84.787c11.544,19.138,23.088,38.275,35.265,58.463c-4.258,0.474-7.512,0.837-12.112,1.349
		c6.984,12.346,13.602,24.045,20.681,36.558c-3.619,0.464-6.299,0.807-10.587,1.356c8.114,14.172,15.895,27.762,24.173,42.22
		c-5.483,0.337-9.617,0.592-14.849,0.914c7.542,13.148,14.428,25.153,21.845,38.083c-3.016,0.21-4.751,0.431-6.487,0.435
		c-11.49,0.032-22.981,0.114-34.469-0.03c-4.419-0.055-6.394,1.503-6.188,6.146c0.273,6.149-0.028,12.322,0.1,18.48
		c0.077,3.717-1.242,5.53-5.216,5.463c-8.823-0.15-17.651-0.118-26.476-0.014c-3.14,0.037-4.686-1.232-4.687-4.359
		c-0.003-7.139-0.001-14.277-0.001-21.525c1.887-0.572,3.506-0.916,5.007-1.544c5.66-2.366,7.35-8.554,3.833-14.758
		c-6.317-11.142-12.802-22.189-19.2-33.286c-0.807-1.399-1.509-2.858-2.422-4.6c1.469-0.116,2.445-0.19,3.421-0.269
		c9.282-0.751,13.043-7.648,8.447-15.847c-5.042-8.996-10.232-17.912-15.525-26.763c-1.687-2.82-2.032-5.082-0.108-8.072
		c3.664-5.692,6.835-11.701,10.767-18.548c-4.151-0.404-7.325-0.712-12.121-1.179c11.593-20.264,23.609-39.311,35.078-58.678
		C562.734,84.784,563.344,84.785,563.955,84.787z"/>
</g>
</svg>
